#N canvas 374 66 1535 969 12;
#X obj 534 113 *~;
#X obj 445 111 *~;
#X obj 111 107 hsl 45 15 0 127 0 1 \$0-get-pan \$0-set-pan empty -2 -9 0 10 #fcfcfc #000000 #000000 2450 1;
#X obj 445 329 *~;
#X obj 533 330 *~;
#X obj 462 177 t f f;
#X msg 463 202 127 \$1;
#X obj 463 228 -;
#X obj 463 250 / 127;
#X obj 463 272 pack 0 50;
#X obj 463 294 line~;
#X obj 551 242 / 127;
#X obj 551 264 pack 0 50;
#X obj 551 286 line~;
#X obj 445 375 min~ 1;
#X obj 533 373 min~ 1;
#X obj 445 402 clip~ -1 1;
#X obj 532 402 clip~ -1 1;
#X obj 387 535 outlet~;
#X obj 570 535 outlet~;
#X obj 138 131 vu 8 160 \$0-uv-l empty -1 -11 0 61010 #404040 #000000 0 0;
#X floatatom 445 567 5 0 0 0 - - - 0;
#X obj 446 590 - 100;
#X obj 445 535 env~;
#X obj 149 131 vu 8 160 \$0-uv-r empty -1 -11 0 61010 #404040 #000000 1 0;
#X floatatom 533 567 5 0 0 0 - - - 0;
#X obj 534 590 - 100;
#X obj 533 535 env~;
#X obj 165 107 tgl 15 1 \$0-get-mute \$0-set-mute empty 0 -11 0 12 #fcfcfc #000000 #000000 1 1;
#X obj 445 506 *~;
#X obj 532 506 *~;
#X obj 446 620 s \$0-uv-l;
#X obj 534 621 s \$0-uv-r;
#X obj 445 70 inlet~;
#X obj 534 70 inlet~;
#X obj 657 142 f;
#X obj 657 269 savestate;
#X obj 108 130 vsl 21 160 0 1 0 0 \$0-get-vol \$0-set-vol empty 0 0 0 12 #fcfcfc #000000 #000000 0 1;
#X obj 675 109 r \$0-get-vol;
#X obj 690 136 r \$0-get-mute;
#X obj 724 167 r \$0-get-pan;
#X obj 657 413 s \$0-set-vol;
#X obj 738 369 s \$0-set-pan;
#X obj 698 391 s \$0-set-mute;
#X obj 657 236 pack f f f;
#X obj 657 309 unpack f f f;
#X text 758 246 Left outlet returns the list or lists to the abstraction which can use them to restore its state when it is reloaded., f 46;
#X text 758 299 right outlet gets bang when parent patch is saved. In response we send [savestate] one or more lists that will be stored as part of the parent patch, f 50;
#X text 820 185 Here we build and send a single list of parameters we want to save. The next example shows how you can store more than a single list., f 49;
#X obj 458 31 r \$0-get-vol;
#X obj 462 145 r \$0-get-pan;
#X obj 464 470 r \$0-get-mute;
#X connect 0 0 4 0;
#X connect 1 0 3 0;
#X connect 3 0 14 0;
#X connect 4 0 15 0;
#X connect 5 0 6 0;
#X connect 5 1 11 0;
#X connect 6 0 7 0;
#X connect 7 0 8 0;
#X connect 8 0 9 0;
#X connect 9 0 10 0;
#X connect 10 0 3 1;
#X connect 11 0 12 0;
#X connect 12 0 13 0;
#X connect 13 0 4 1;
#X connect 14 0 16 0;
#X connect 15 0 17 0;
#X connect 16 0 29 0;
#X connect 17 0 30 0;
#X connect 21 0 22 0;
#X connect 22 0 31 0;
#X connect 23 0 21 0;
#X connect 25 0 26 0;
#X connect 26 0 32 0;
#X connect 27 0 25 0;
#X connect 29 0 18 0;
#X connect 29 0 23 0;
#X connect 30 0 27 0;
#X connect 30 0 19 0;
#X connect 33 0 1 0;
#X connect 34 0 0 0;
#X connect 35 0 44 0;
#X connect 36 0 45 0;
#X connect 36 1 35 0;
#X connect 38 0 35 1;
#X connect 39 0 44 1;
#X connect 40 0 44 2;
#X connect 44 0 36 0;
#X connect 45 0 41 0;
#X connect 45 1 43 0;
#X connect 45 2 42 0;
#X connect 49 0 1 1;
#X connect 49 0 0 1;
#X connect 50 0 5 0;
#X connect 51 0 29 1;
#X connect 51 0 30 1;
#X coords 0 -1 1 1 90 200 2 100 100;
