#N canvas 964 66 945 971 10;
#X obj 640 113 *~;
#X obj 445 111 *~;
#X obj 133 188 hsl 45 15 0 127 0 1 \$0-get-pan \$0-set-pan pan -2 -9 0 9 #fcfcfc #000000 #000000 2100 1;
#X obj 445 329 *~;
#X obj 639 330 *~;
#X obj 457 177 t f f;
#X msg 458 202 127 \$1;
#X obj 458 228 -;
#X obj 458 250 / 127;
#X obj 458 272 pack 0 50;
#X obj 458 294 line~;
#X obj 652 242 / 127;
#X obj 652 264 pack 0 50;
#X obj 652 286 line~;
#X obj 445 375 min~ 1;
#X obj 639 373 min~ 1;
#X obj 445 402 clip~ -1 1;
#X obj 639 402 clip~ -1 1;
#X obj 379 500 outlet~;
#X obj 682 500 outlet~;
#X floatatom 445 532 5 0 0 0 - - - 0;
#X obj 445 555 - 100;
#X obj 445 500 env~;
#X floatatom 639 532 5 0 0 0 - - - 0;
#X obj 639 555 - 100;
#X obj 639 500 env~;
#X obj 187 188 tgl 15 1 \$0-get-mute \$0-set-mute mute 0 -10 0 10 #fcfcfc #000000 #000000 1 1;
#X obj 445 471 *~;
#X obj 639 471 *~;
#X obj 445 585 s \$0-uv-l;
#X obj 639 586 s \$0-uv-r;
#X obj 827 692 f;
#X obj 827 849 savestate;
#X obj 131 211 vsl 21 160 0 1 0 0 \$0-get-vol \$0-set-vol empty 0 0 0 12 #fcfcfc #000000 #000000 0 1;
#X obj 841 579 r \$0-get-vol;
#X obj 843 606 r \$0-get-mute;
#X obj 857 628 r \$0-get-pan;
#X obj 827 1113 s \$0-set-vol;
#X obj 859 1069 s \$0-set-pan;
#X obj 843 1091 s \$0-set-mute;
#X text 1068 854 Left outlet returns the list or lists to the abstraction which can use them to restore its state when it is reloaded., f 54;
#X obj 458 61 r \$0-get-vol;
#X obj 457 145 r \$0-get-pan;
#X obj 459 435 r \$0-get-mute;
#X text 1069 836 [savestate];
#X text 1070 811 Build and send a single list of parameters we want to save., f 60;
#X text 1068 900 Right outlet gets bang when parent patch is saved. In response we send [savestate] one or more lists that will be stored as part of the parent patch., f 54;
#X text 1069 787 Save and restore state.;
#X obj 830 78 r \$0-get-send-a;
#X obj 926 135 outlet~;
#X obj 926 106 *~;
#X obj 540 115 s~ \$0-get-r;
#X obj 347 116 s~ \$0-get-l;
#X obj 926 53 r~ \$0-get-r;
#X obj 817 108 *~;
#X obj 817 53 r~ \$0-get-l;
#X obj 817 138 outlet~;
#X obj 1136 135 outlet~;
#X obj 1136 106 *~;
#X obj 1136 53 r~ \$0-get-r;
#X obj 1027 108 *~;
#X obj 1027 53 r~ \$0-get-l;
#X obj 1027 138 outlet~;
#X obj 1040 78 r \$0-get-send-b;
#X obj 1342 133 outlet~;
#X obj 1342 104 *~;
#X obj 1342 51 r~ \$0-get-r;
#X obj 1233 106 *~;
#X obj 1233 51 r~ \$0-get-l;
#X obj 1233 136 outlet~;
#X obj 1246 76 r \$0-get-send-c;
#X obj 871 650 r \$0-get-send-a;
#X obj 886 672 r \$0-get-send-b;
#X obj 901 694 r \$0-get-send-c;
#X obj 875 1049 s \$0-set-send-a;
#X obj 892 1029 s \$0-set-send-b;
#X obj 908 1007 s \$0-set-send-c;
#X obj 101 391 cnv 5 5 5 empty empty L 1 -5 0 10 #ceb848 #404040 0;
#X obj 112 391 cnv 5 5 5 empty empty R 1 -5 0 10 #ceb848 #404040 0;
#X obj 123 391 cnv 5 5 5 empty empty A 1 -5 0 10 #ceb848 #404040 0;
#X obj 134 391 cnv 5 5 5 empty empty A 1 -5 0 10 #ceb848 #404040 0;
#X obj 146 391 cnv 5 5 5 empty empty B 1 -5 0 10 #ceb848 #404040 0;
#X obj 157 391 cnv 5 5 5 empty empty B 1 -5 0 10 #ceb848 #404040 0;
#X obj 169 391 cnv 5 5 5 empty empty C 1 -5 0 10 #ceb848 #404040 0;
#X obj 180 391 cnv 5 5 5 empty empty C 1 -5 0 10 #ceb848 #404040 0;
#X obj 108 125 vsl 18 40 0 1 0 0 \$0-get-send-a \$0-set-send-a A 5 -10 0 10 #fcfcfc #000000 #000000 0 1;
#X obj 134 125 vsl 18 40 0 1 0 0 \$0-get-send-b \$0-set-send-b B 5 -9 0 10 #fcfcfc #000000 #000000 0 1;
#X obj 160 125 vsl 18 40 0 1 0 0 \$0-get-send-c \$0-set-send-c C 5 -9 0 10 #fcfcfc #000000 #000000 0 1;
#X obj 501 545 dac~ 1 2;
#X floatatom 105 221 3 0 20 2 R \$0-set-input-r \$0-get-input-r 0;
#X floatatom 105 186 3 0 20 2 L \$0-set-input-l \$0-get-input-l 0;
#X obj 347 81 adc~ 1;
#X obj 540 82 adc~ 1;
#X obj 347 31 r \$0-get-input-l;
#X msg 347 58 set \$1;
#X msg 540 59 set \$1;
#X obj 540 30 r \$0-get-input-r;
#X obj 930 746 r \$0-get-input-l;
#X obj 945 774 r \$0-get-input-r;
#X obj 940 954 s \$0-set-input-l;
#X obj 956 929 s \$0-set-input-r;
#X text 814 29 Sends;
#X obj 653 61 r \$0-get-vol;
#X obj 104 358 tgl 15 1 \$0-get-out-toggle \$0-set-out-toggle out 0 -11 0 10 #fcfcfc #000000 #000000 0 1;
#X obj 515 474 r \$0-get-out-toggle;
#X obj 501 510 *~;
#X obj 542 510 *~;
#X obj 185 125 vsl 18 40 0 1 0 0 \$0-get-send-d \$0-set-send-d D 5 -9 0 10 #fcfcfc #000000 #000000 0 1;
#X obj 292 82 inlet~;
#X obj 476 83 inlet~;
#X obj 1534 133 outlet~;
#X obj 1534 104 *~;
#X obj 1534 51 r~ \$0-get-r;
#X obj 1425 106 *~;
#X obj 1425 51 r~ \$0-get-l;
#X obj 1425 136 outlet~;
#X obj 1438 76 r \$0-get-send-d;
#X obj 827 816 pack f f f f f f f f f;
#X obj 915 717 r \$0-get-send-d;
#X obj 827 889 unpack f f f f f f f f f;
#X obj 923 983 s \$0-set-send-d;
#X obj 192 391 cnv 5 5 5 empty empty D 1 -5 0 10 #ceb848 #404040 0;
#X obj 203 391 cnv 5 5 5 empty empty D 1 -5 0 10 #ceb848 #404040 0;
#X connect 0 0 4 0;
#X connect 1 0 3 0;
#X connect 3 0 14 0;
#X connect 4 0 15 0;
#X connect 5 0 6 0;
#X connect 5 1 11 0;
#X connect 6 0 7 0;
#X connect 7 0 8 0;
#X connect 8 0 9 0;
#X connect 9 0 10 0;
#X connect 10 0 3 1;
#X connect 11 0 12 0;
#X connect 12 0 13 0;
#X connect 13 0 4 1;
#X connect 14 0 16 0;
#X connect 15 0 17 0;
#X connect 16 0 27 0;
#X connect 17 0 28 0;
#X connect 20 0 21 0;
#X connect 21 0 29 0;
#X connect 22 0 20 0;
#X connect 23 0 24 0;
#X connect 24 0 30 0;
#X connect 25 0 23 0;
#X connect 27 0 18 0;
#X connect 27 0 22 0;
#X connect 27 0 105 0;
#X connect 28 0 25 0;
#X connect 28 0 19 0;
#X connect 28 0 106 0;
#X connect 31 0 117 0;
#X connect 32 0 119 0;
#X connect 32 1 31 0;
#X connect 34 0 31 1;
#X connect 35 0 117 1;
#X connect 36 0 117 2;
#X connect 41 0 1 1;
#X connect 42 0 5 0;
#X connect 43 0 27 1;
#X connect 43 0 28 1;
#X connect 48 0 50 1;
#X connect 48 0 54 1;
#X connect 50 0 49 0;
#X connect 53 0 50 0;
#X connect 54 0 56 0;
#X connect 55 0 54 0;
#X connect 58 0 57 0;
#X connect 59 0 58 0;
#X connect 60 0 62 0;
#X connect 61 0 60 0;
#X connect 63 0 58 1;
#X connect 63 0 60 1;
#X connect 65 0 64 0;
#X connect 66 0 65 0;
#X connect 67 0 69 0;
#X connect 68 0 67 0;
#X connect 70 0 65 1;
#X connect 70 0 67 1;
#X connect 71 0 117 3;
#X connect 72 0 117 4;
#X connect 73 0 117 5;
#X connect 91 0 1 0;
#X connect 91 0 52 0;
#X connect 92 0 0 0;
#X connect 92 0 51 0;
#X connect 93 0 94 0;
#X connect 94 0 91 0;
#X connect 95 0 92 0;
#X connect 96 0 95 0;
#X connect 97 0 117 7;
#X connect 98 0 117 8;
#X connect 102 0 0 1;
#X connect 104 0 105 1;
#X connect 104 0 106 1;
#X connect 105 0 88 0;
#X connect 106 0 88 1;
#X connect 108 0 52 0;
#X connect 108 0 1 0;
#X connect 109 0 51 0;
#X connect 109 0 0 0;
#X connect 111 0 110 0;
#X connect 112 0 111 0;
#X connect 113 0 115 0;
#X connect 114 0 113 0;
#X connect 116 0 111 1;
#X connect 116 0 113 1;
#X connect 117 0 32 0;
#X connect 118 0 117 6;
#X connect 119 0 37 0;
#X connect 119 1 39 0;
#X connect 119 2 38 0;
#X connect 119 3 74 0;
#X connect 119 4 75 0;
#X connect 119 5 76 0;
#X connect 119 6 120 0;
#X connect 119 7 99 0;
#X connect 119 8 100 0;
#X coords 0 -1 1 1 110 300 2 100 100;
