#N canvas 964 41 945 994 8;
#X obj 48 397 umc1820-i;
#X obj 36 16 umc1820-o;
#X obj 260 99 vstplugin~ -e ysfx-s_FX.vst3;
#X obj 52 357 vstplugin~ -e ysfx-s_FX.vst3;
#X obj 480 71 midisync_in;
#X obj 38 140 mixer;
#A saved 0.0440252 1 69.2727;
#X obj 185 130 mixer;
#A saved 0.735849 1 69.2727;
#X obj 314 135 mixer;
#A saved 0.383648 1 69.2727;
#X connect 1 0 5 0;
#X connect 1 1 5 1;
#X connect 1 2 2 0;
#X connect 1 2 2 1;
#X connect 1 3 6 0;
#X connect 1 3 6 1;
#X connect 2 0 7 0;
#X connect 2 1 7 1;
#X connect 3 0 0 0;
#X connect 3 1 0 1;
#X connect 5 0 3 0;
#X connect 5 1 3 1;
#X connect 6 0 3 0;
#X connect 6 1 3 1;
#X connect 7 0 3 0;
#X connect 7 1 3 1;
