#N canvas 404 66 1505 971 12;
#X obj 95 325 vline~;
#X obj 95 263 t b b;
#X msg 95 293 1 0 \, 0 1 1;
#X obj 80 224 fiddle~;
#X obj 80 194 inlet~;
#X obj 95 390 outlet~;
#X obj 109 124 bng 21 250 50 0 \$0_ \$0-clock-ind empty 0 -11 0 12 #ffffff #000000 #000000;
#X obj 200 192 inlet;
#X obj 200 292 s \$0-clock-ind;
#X obj 102 103 cnv 5 5 5 empty clock-adapter-indicator-cv CV 1 12 0 8 #ceb848 #404040 0;
#X obj 131 103 cnv 5 5 5 empty clock-adapter-indicator-ev BNG -7 12 0 8 #ceb848 #404040 0;
#X connect 0 0 5 0;
#X connect 1 0 2 0;
#X connect 2 0 0 0;
#X connect 3 1 1 0;
#X connect 3 1 8 0;
#X connect 4 0 3 0;
#X connect 7 0 8 0;
#X connect 7 0 1 0;
#X coords 0 -1 1 1 40 60 2 100 100;
