#N canvas 374 66 1535 969 10;
#X obj 163 26 midirealtimein;
#X obj 65 337 bng 15 250 50 0 empty empty empty 17 7 0 10 #fcfcfc #000000 #000000;
#X obj 86 337 bng 15 250 50 0 empty empty empty 17 7 0 10 #fcfcfc #000000 #000000;
#X obj 108 337 bng 15 250 50 0 empty empty empty 17 7 0 10 #fcfcfc #000000 #000000;
#X obj 130 337 bng 15 250 50 0 empty empty empty 17 7 0 10 #fcfcfc #000000 #000000;
#X obj 113 269 mod 96;
#X obj 201 237 + 1;
#X obj 163 237 f;
#X obj 65 304 sel 0 24 48 72;
#X obj 163 136 t b b;
#X text 220 176 < resets counter to 0;
#X obj 65 366 t b;
#X obj 66 399 bng 15 250 50 0 empty empty empty 17 7 0 10 #fcfcfc #000000 #000000;
#X obj 171 358 bng 15 250 50 0 empty empty empty 17 7 0 10 #fcfcfc #000000 #000000;
#X text 248 261 < you have two different options here a) separate out the beats or b) use in the more conventional [metro] form.;
#X text -47 -52 This is the simplest method to grab midiclock. There's probably better methods of resetting the counter but this works for most purposes. Hope it helps!;
#X obj 113 49 == 250;
#X obj 163 74 == 248;
#X msg 52 104 1;
#X obj 230 78 sel 1;
#X obj 230 54 == 252;
#X obj 52 127 s \$0-start;
#X obj 53 72 sel 1;
#X msg 257 102 0;
#X obj 230 128 s \$0-start;
#X obj 240 298 r \$0-start;
#X obj 172 303 sel 0;
#X obj 207 343 &;
#X obj 207 366 sel 1;
#X obj 180 158 r \$0-start;
#X msg 178 212 0;
#X obj 180 181 sel 1;
#X obj 178 399 outlet;
#X obj 301 398 bng 15 250 50 0 empty empty empty 17 7 0 10 #fcfcfc #000000 #000000;
#X obj 308 439 outlet;
#X msg 172 326 1;
#X obj 172 270 mod 12;
#X obj 298 363 metro 0.25 140 permin;
#X connect 0 0 16 0;
#X connect 0 0 17 0;
#X connect 0 0 20 0;
#X connect 1 0 11 0;
#X connect 2 0 11 0;
#X connect 3 0 11 0;
#X connect 4 0 11 0;
#X connect 5 0 8 0;
#X connect 6 0 7 1;
#X connect 7 0 6 0;
#X connect 7 0 5 0;
#X connect 7 0 36 0;
#X connect 8 0 1 0;
#X connect 8 1 2 0;
#X connect 8 2 3 0;
#X connect 8 3 4 0;
#X connect 9 0 7 0;
#X connect 11 0 12 0;
#X connect 13 0 32 0;
#X connect 16 0 22 0;
#X connect 17 0 9 0;
#X connect 18 0 21 0;
#X connect 19 0 23 0;
#X connect 20 0 19 0;
#X connect 22 0 18 0;
#X connect 23 0 24 0;
#X connect 25 0 27 1;
#X connect 25 0 37 0;
#X connect 26 0 35 0;
#X connect 27 0 28 0;
#X connect 28 0 13 0;
#X connect 29 0 31 0;
#X connect 30 0 7 1;
#X connect 31 0 30 0;
#X connect 33 0 34 0;
#X connect 35 0 27 0;
#X connect 36 0 26 0;
#X connect 37 0 33 0;
