#N canvas 964 66 945 971 10;
#X obj -17 26 midirealtimein;
#X obj -17 426 bng 15 250 50 0 empty empty empty 17 7 0 10 #fcfcfc #000000 #000000;
#X obj 2 426 bng 15 250 50 0 empty empty empty 17 7 0 10 #fcfcfc #000000 #000000;
#X obj 20 426 bng 15 250 50 0 empty empty empty 17 7 0 10 #fcfcfc #000000 #000000;
#X obj 39 426 bng 15 250 50 0 empty empty empty 17 7 0 10 #fcfcfc #000000 #000000;
#X obj -17 360 mod 96;
#X obj 28 296 + 1;
#X obj -17 296 f;
#X obj -17 393 sel 0 24 48 72;
#X obj -17 105 t b b;
#X obj -17 455 t b;
#X obj -17 488 bng 15 250 50 0 empty empty empty 17 7 0 10 #fcfcfc #000000 #000000;
#X obj 82 492 bng 15 250 50 0 empty empty empty 17 7 0 10 #fcfcfc #000000 #000000;
#X obj 43 80 == 250;
#X obj -17 80 == 248;
#X msg 43 135 1;
#X obj 120 106 sel 1;
#X obj 120 81 == 252;
#X obj 43 158 s \$0-start;
#X obj 43 103 sel 1;
#X msg 120 132 0;
#X obj 120 158 s \$0-start;
#X obj 158 413 r \$0-start;
#X obj 82 394 sel 0;
#X obj 82 444 &;
#X obj 82 467 sel 1;
#X obj -4 203 r \$0-start;
#X msg -4 251 0;
#X obj -4 226 sel 1;
#X obj 82 520 outlet;
#X obj 158 479 bng 15 250 50 0 empty empty empty 17 7 0 10 #fcfcfc #000000 #000000;
#X obj 158 520 outlet;
#X msg 82 417 1;
#X obj 158 444 metro 0.25 140 permin;
#X text -40 -55 This is the simplest method to grab midiclock. There's probably better methods of resetting the counter but this works for most purposes.;
#X text 67 203 Resets counter to 0 when starting;
#X text 67 293 Incrementing all the time to get the ability to use modulo since clock is comming in a very fast pace.;
#X text 287 349 Output options: a) Separate out the beats. TODO: Can be used for clock divisions. b) Conventional clock from MIDI device. c) [metro] object as proxy. More stable than conventional but tempo needs to be manually set. TODO: Maybe we could somehow calculate it based on the conventional clock., f 47;
#X text 197 71 MIDI codes: 248-clock 250-start 252-stop;
#X floatatom 25 718 5 0 0 0 - - - 0;
#X obj -3 578 t b f;
#X obj 27 631 /;
#X msg -3 608 60000;
#X obj 82 361 mod 24;
#X obj -3 555 timer;
#X obj 30 670 round_int;
#X obj 80 703 print;
#X connect 0 0 13 0;
#X connect 0 0 14 0;
#X connect 0 0 17 0;
#X connect 1 0 10 0;
#X connect 1 0 44 0;
#X connect 2 0 10 0;
#X connect 2 0 44 1;
#X connect 3 0 10 0;
#X connect 4 0 10 0;
#X connect 5 0 8 0;
#X connect 6 0 7 1;
#X connect 7 0 6 0;
#X connect 7 0 5 0;
#X connect 7 0 43 0;
#X connect 8 0 1 0;
#X connect 8 1 2 0;
#X connect 8 2 3 0;
#X connect 8 3 4 0;
#X connect 9 0 7 0;
#X connect 10 0 11 0;
#X connect 12 0 29 0;
#X connect 13 0 19 0;
#X connect 14 0 9 0;
#X connect 15 0 18 0;
#X connect 16 0 20 0;
#X connect 17 0 16 0;
#X connect 19 0 15 0;
#X connect 20 0 21 0;
#X connect 22 0 24 1;
#X connect 22 0 33 0;
#X connect 23 0 32 0;
#X connect 24 0 25 0;
#X connect 25 0 12 0;
#X connect 26 0 28 0;
#X connect 27 0 7 1;
#X connect 28 0 27 0;
#X connect 30 0 31 0;
#X connect 32 0 24 0;
#X connect 33 0 30 0;
#X connect 40 0 42 0;
#X connect 40 1 41 1;
#X connect 41 0 45 0;
#X connect 42 0 41 0;
#X connect 43 0 23 0;
#X connect 44 0 40 0;
#X connect 45 0 39 0;
#X connect 45 0 46 0;
