#N canvas 384 66 1525 971 10;
#X obj 48 56 inlet;
#X obj 75 100 i;
#X obj 48 78 t f f;
#X obj 74 157 -;
#X obj 47 264 +;
#X obj 47 353 outlet;
#X text 43 24 Round a float to the nearest integer;
#X obj 47 330 change;
#X obj 75 122 t f;
#X obj 74 202 sel 1;
#X msg 91 225 0.5;
#X obj 47 287 i;
#X obj 115 202 sel 0;
#X floatatom 90 334 5 0 0 0 - - - 0;
#X msg 131 235 0;
#X obj 74 179 >= 0.6;
#X floatatom 130 333 5 0 0 0 - - - 0;
#X floatatom 170 334 5 0 0 0 - - - 0;
#X connect 0 0 2 0;
#X connect 1 0 8 0;
#X connect 2 0 3 0;
#X connect 2 0 4 0;
#X connect 2 0 17 0;
#X connect 2 1 1 0;
#X connect 3 0 15 0;
#X connect 3 0 16 0;
#X connect 4 0 11 0;
#X connect 7 0 5 0;
#X connect 8 0 3 1;
#X connect 9 0 10 0;
#X connect 10 0 4 1;
#X connect 11 0 7 0;
#X connect 11 0 13 0;
#X connect 12 0 14 0;
#X connect 14 0 4 1;
#X connect 15 0 9 0;
#X connect 15 0 12 0;
