#N canvas 964 66 945 969 12;
#X obj 15 626 adc~ 1 2 3 4 5 6 7 8 9 10 11 12 13 14 15 16 17 18;
#X obj 101 136 cnv 1 128 2 empty empty LINE 0 -5 0 7 #ceb848 #404040 0;
#X obj 236 136 cnv 1 28 2 empty empty SPDIF 0 -5 0 7 #ceb848 #404040 0;
#X obj 270 136 cnv 1 128 2 empty empty ADAT 0 -5 0 7 #ceb848 #404040 0;
#X obj 101 150 cnv 5 5 5 empty o-indicator-1 1 1 -5 0 8 #ceb848 #404040 0;
#X obj 117 150 cnv 5 5 5 empty o-indicator-2 2 1 -5 0 8 #ceb848 #404040 0;
#X obj 134 150 cnv 5 5 5 empty o-indicator-3 3 1 -5 0 8 #ceb848 #404040 0;
#X obj 152 150 cnv 5 5 5 empty o-indicator-4 4 1 -5 0 8 #ceb848 #404040 0;
#X obj 169 150 cnv 5 5 5 empty o-indicator-5 5 1 -5 0 8 #ceb848 #404040 0;
#X obj 186 150 cnv 5 5 5 empty o-indicator-6 6 1 -5 0 8 #ceb848 #404040 0;
#X obj 203 150 cnv 5 5 5 empty o-indicator-7 7 1 -5 0 8 #ceb848 #404040 0;
#X obj 220 150 cnv 5 5 5 empty o-indicator-8 8 1 -5 0 8 #ceb848 #404040 0;
#X obj 238 150 cnv 5 5 5 empty o-indicator-9 9 0 -5 0 8 #ceb848 #404040 0;
#X obj 255 150 cnv 5 5 5 empty o-indicator-10 10 -2 -5 0 8 #ceb848 #404040 0;
#X obj 273 150 cnv 5 5 5 empty o-indicator-11 11 -2 -5 0 8 #ceb848 #404040 0;
#X obj 290 150 cnv 5 5 5 empty o-indicator-12 12 -2 -5 0 8 #ceb848 #404040 0;
#X obj 307 150 cnv 5 5 5 empty o-indicator-13 13 -2 -5 0 8 #ceb848 #404040 0;
#X obj 324 150 cnv 5 5 5 empty o-indicator-14 14 -2 -5 0 8 #ceb848 #404040 0;
#X obj 341 150 cnv 5 5 5 empty o-indicator-15 15 -2 -5 0 8 #ceb848 #404040 0;
#X obj 359 150 cnv 5 5 5 empty o-indicator-16 16 -2 -5 0 8 #ceb848 #404040 0;
#X obj 376 150 cnv 5 5 5 empty o-indicator-17 17 -2 -5 0 8 #ceb848 #404040 0;
#X obj 393 150 cnv 5 5 5 empty o-indicator-18 18 -4 -5 0 8 #ceb848 #404040 0;
#X obj 15 1172 s~ \$0-i-1;
#X obj 35 1142 s~ \$0-i-2;
#X obj 55 1111 s~ \$0-i-3;
#X obj 75 1081 s~ \$0-i-4;
#X obj 95 1051 s~ \$0-i-5;
#X obj 115 1021 s~ \$0-i-6;
#X obj 135 992 s~ \$0-i-7;
#X obj 155 965 s~ \$0-i-8;
#X obj 175 937 s~ \$0-i-9;
#X obj 195 909 s~ \$0-i-10;
#X obj 215 882 s~ \$0-i-11;
#X obj 235 854 s~ \$0-i-12;
#X obj 255 824 s~ \$0-i-13;
#X obj 275 795 s~ \$0-i-14;
#X obj 295 766 s~ \$0-i-15;
#X obj 315 735 s~ \$0-i-16;
#X obj 335 705 s~ \$0-i-17;
#X obj 355 675 s~ \$0-i-18;
#X obj 102 118 cnv 5 5 5 empty empty UMC-1820\ OUT 1 -5 0 12 #ffe45e #404040 0;
#X obj 14 462 sel 1;
#X obj 14 408 env~;
#X obj 264 457 sel 1;
#X obj 264 433 > 0;
#X obj 264 406 env~;
#X obj 774 447 sel 1;
#X obj 774 423 > 0;
#X obj 774 396 env~;
#X obj 774 369 r~ \$0-i-4;
#X msg 774 479 \; o-indicator-4 color #16DB65;
#X msg 806 522 \; o-indicator-4 color #ceb848;
#X obj 1014 448 sel 1;
#X obj 1014 424 > 0;
#X obj 1014 397 env~;
#X obj 1264 447 sel 1;
#X obj 1264 423 > 0;
#X obj 1264 396 env~;
#X obj 1014 370 r~ \$0-i-5;
#X obj 1264 369 r~ \$0-i-6;
#X msg 1264 479 \; o-indicator-6 color #16DB65;
#X msg 1296 522 \; o-indicator-6 color #ceb848;
#X obj 1514 448 sel 1;
#X obj 1514 424 > 0;
#X obj 1514 397 env~;
#X obj 1764 447 sel 1;
#X obj 1764 423 > 0;
#X obj 1764 396 env~;
#X obj 1514 370 r~ \$0-i-7;
#X msg 1514 480 \; o-indicator-7 color #16DB65;
#X msg 1546 523 \; o-indicator-7 color #ceb848;
#X obj 1764 369 r~ \$0-i-8;
#X msg 1764 479 \; o-indicator-8 color #16DB65;
#X msg 1796 522 \; o-indicator-8 color #ceb848;
#X obj 2004 442 sel 1;
#X obj 2004 418 > 0;
#X obj 2004 391 env~;
#X obj 2254 441 sel 1;
#X obj 2254 417 > 0;
#X obj 2254 390 env~;
#X obj 2004 364 r~ \$0-i-9;
#X msg 2004 474 \; o-indicator-9 color #16DB65;
#X msg 2036 517 \; o-indicator-9 color #ceb848;
#X obj 2254 363 r~ \$0-i-10;
#X msg 2254 473 \; o-indicator-10 color #16DB65;
#X msg 2286 516 \; o-indicator-10 color #ceb848;
#X obj 2514 441 sel 1;
#X obj 2514 417 > 0;
#X obj 2514 390 env~;
#X obj 2764 440 sel 1;
#X obj 2764 416 > 0;
#X obj 2764 389 env~;
#X obj 2514 363 r~ \$0-i-11;
#X msg 2514 473 \; o-indicator-11 color #16DB65;
#X msg 2546 516 \; o-indicator-11 color #ceb848;
#X obj 2764 362 r~ \$0-i-12;
#X msg 2764 472 \; o-indicator-12 color #16DB65;
#X msg 2796 515 \; o-indicator-12 color #ceb848;
#X obj 3034 441 sel 1;
#X obj 3034 417 > 0;
#X obj 3034 390 env~;
#X obj 3284 440 sel 1;
#X obj 3284 416 > 0;
#X obj 3284 389 env~;
#X obj 3034 363 r~ \$0-i-13;
#X msg 3034 473 \; o-indicator-13 color #16DB65;
#X msg 3066 516 \; o-indicator-13 color #ceb848;
#X obj 3284 362 r~ \$0-i-14;
#X msg 3284 472 \; o-indicator-14 color #16DB65;
#X msg 3316 515 \; o-indicator-14 color #ceb848;
#X obj 3534 441 sel 1;
#X obj 3534 417 > 0;
#X obj 3534 390 env~;
#X obj 3784 440 sel 1;
#X obj 3784 416 > 0;
#X obj 3784 389 env~;
#X obj 3534 363 r~ \$0-i-15;
#X msg 3534 473 \; o-indicator-15 color #16DB65;
#X msg 3566 516 \; o-indicator-15 color #ceb848;
#X obj 3784 362 r~ \$0-i-16;
#X msg 3784 472 \; o-indicator-16 color #16DB65;
#X msg 3816 515 \; o-indicator-16 color #ceb848;
#X obj 4044 441 sel 1;
#X obj 4044 417 > 0;
#X obj 4044 390 env~;
#X obj 4294 440 sel 1;
#X obj 4294 416 > 0;
#X obj 4294 389 env~;
#X obj 4294 362 r~ \$0-i-18;
#X msg 4294 472 \; o-indicator-18 color #16DB65;
#X msg 4326 515 \; o-indicator-18 color #ceb848;
#X obj 370 105 cnv 5 5 5 empty dsp DSP 10 3 0 8 #16db65 #404040 0;
#X obj 24 244 r pd-dsp-started;
#X msg 176 280 \; dsp color #ceb848;
#X obj 176 244 r pd-dsp-stopped;
#X msg 24 280 \; dsp color #16DB65;
#X obj 14 435 > 0;
#X msg 1014 480 \; o-indicator-5 color #16DB65;
#X msg 1046 523 \; o-indicator-5 color #ceb848;
#X obj 4044 363 r~ \$0-i-17;
#X obj 14 381 r~ \$0-i-1;
#X msg 14 490 \; o-indicator-1 color #16DB65;
#X msg 46 533 \; o-indicator-1 color #ceb848;
#X obj 264 379 r~ \$0-i-2;
#X msg 264 489 \; o-indicator-2 color #16DB65;
#X msg 296 532 \; o-indicator-2 color #ceb848;
#X msg 4044 473 \; o-indicator-17 color #16DB65;
#X msg 4076 516 \; o-indicator-17 color #ceb848;
#X obj 524 458 sel 1;
#X obj 524 434 > 0;
#X obj 524 407 env~;
#X obj 524 380 r~ \$0-i-3;
#X msg 524 490 \; o-indicator-3 color #16DB65;
#X msg 556 533 \; o-indicator-3 color #ceb848;
#X obj 54 407 outlet~;
#X obj 574 406 outlet~;
#X obj 314 405 outlet~;
#X obj 814 395 outlet~;
#X obj 1064 396 outlet~;
#X obj 1314 395 outlet~;
#X obj 1564 396 outlet~;
#X obj 1804 395 outlet~;
#X obj 2044 390 outlet~;
#X obj 2294 389 outlet~;
#X obj 2554 389 outlet~;
#X obj 2804 388 outlet~;
#X obj 3084 389 outlet~;
#X obj 3324 388 outlet~;
#X obj 3574 389 outlet~;
#X obj 3824 388 outlet~;
#X obj 4084 389 outlet~;
#X obj 4344 388 outlet~;
#X msg 330 278 \; pd dsp 1;
#X obj 330 240 loadbang;
#X obj 378 116 tgl 15 0 \$0-get-dsp-toggle \$0-set-dsp-toggle empty 0 -11 0 12 #fcfcfc #000000 #000000 0 1;
#X obj 426 244 r \$0-get-dsp-toggle;
#X msg 428 276 \; pd dsp \$1;
#X obj 407 211 s \$0-set-dsp-toggle;
#X connect 0 0 22 0;
#X connect 0 1 23 0;
#X connect 0 2 24 0;
#X connect 0 3 25 0;
#X connect 0 4 26 0;
#X connect 0 5 27 0;
#X connect 0 6 28 0;
#X connect 0 7 29 0;
#X connect 0 8 30 0;
#X connect 0 9 31 0;
#X connect 0 10 32 0;
#X connect 0 11 33 0;
#X connect 0 12 34 0;
#X connect 0 13 35 0;
#X connect 0 14 36 0;
#X connect 0 15 37 0;
#X connect 0 16 38 0;
#X connect 0 17 39 0;
#X connect 41 0 141 0;
#X connect 41 1 142 0;
#X connect 42 0 136 0;
#X connect 43 0 144 0;
#X connect 43 1 145 0;
#X connect 44 0 43 0;
#X connect 45 0 44 0;
#X connect 46 0 50 0;
#X connect 46 1 51 0;
#X connect 47 0 46 0;
#X connect 48 0 47 0;
#X connect 49 0 48 0;
#X connect 49 0 157 0;
#X connect 52 0 137 0;
#X connect 52 1 138 0;
#X connect 53 0 52 0;
#X connect 54 0 53 0;
#X connect 55 0 60 0;
#X connect 55 1 61 0;
#X connect 56 0 55 0;
#X connect 57 0 56 0;
#X connect 58 0 158 0;
#X connect 58 0 54 0;
#X connect 59 0 57 0;
#X connect 59 0 159 0;
#X connect 62 0 69 0;
#X connect 62 1 70 0;
#X connect 63 0 62 0;
#X connect 64 0 63 0;
#X connect 65 0 72 0;
#X connect 65 1 73 0;
#X connect 66 0 65 0;
#X connect 67 0 66 0;
#X connect 68 0 64 0;
#X connect 68 0 160 0;
#X connect 71 0 67 0;
#X connect 71 0 161 0;
#X connect 74 0 81 0;
#X connect 74 1 82 0;
#X connect 75 0 74 0;
#X connect 76 0 75 0;
#X connect 77 0 84 0;
#X connect 77 1 85 0;
#X connect 78 0 77 0;
#X connect 79 0 78 0;
#X connect 80 0 76 0;
#X connect 80 0 162 0;
#X connect 83 0 79 0;
#X connect 83 0 163 0;
#X connect 86 0 93 0;
#X connect 86 1 94 0;
#X connect 87 0 86 0;
#X connect 88 0 87 0;
#X connect 89 0 96 0;
#X connect 89 1 97 0;
#X connect 90 0 89 0;
#X connect 91 0 90 0;
#X connect 92 0 88 0;
#X connect 92 0 164 0;
#X connect 95 0 91 0;
#X connect 95 0 165 0;
#X connect 98 0 105 0;
#X connect 98 1 106 0;
#X connect 99 0 98 0;
#X connect 100 0 99 0;
#X connect 101 0 108 0;
#X connect 101 1 109 0;
#X connect 102 0 101 0;
#X connect 103 0 102 0;
#X connect 104 0 100 0;
#X connect 104 0 166 0;
#X connect 107 0 103 0;
#X connect 107 0 167 0;
#X connect 110 0 117 0;
#X connect 110 1 118 0;
#X connect 111 0 110 0;
#X connect 112 0 111 0;
#X connect 113 0 120 0;
#X connect 113 1 121 0;
#X connect 114 0 113 0;
#X connect 115 0 114 0;
#X connect 116 0 112 0;
#X connect 116 0 168 0;
#X connect 119 0 115 0;
#X connect 119 0 169 0;
#X connect 122 0 146 0;
#X connect 122 1 147 0;
#X connect 123 0 122 0;
#X connect 124 0 123 0;
#X connect 125 0 129 0;
#X connect 125 1 130 0;
#X connect 126 0 125 0;
#X connect 127 0 126 0;
#X connect 128 0 127 0;
#X connect 128 0 171 0;
#X connect 132 0 135 0;
#X connect 134 0 133 0;
#X connect 136 0 41 0;
#X connect 139 0 124 0;
#X connect 139 0 170 0;
#X connect 140 0 42 0;
#X connect 140 0 154 0;
#X connect 143 0 45 0;
#X connect 143 0 156 0;
#X connect 148 0 152 0;
#X connect 148 1 153 0;
#X connect 149 0 148 0;
#X connect 150 0 149 0;
#X connect 151 0 150 0;
#X connect 151 0 155 0;
#X connect 173 0 172 0;
#X connect 173 0 177 0;
#X connect 175 0 176 0;
#X coords 0 -1 1 1 300 60 2 100 100;
