#N canvas 964 66 945 969 12;
#X obj 133 126 cnv 1 130 2 empty empty LINE 0 8 0 7 #ceb848 #404040 0;
#X obj 271 126 cnv 1 28 2 empty empty SPDIF 0 8 0 7 #ceb848 #404040 0;
#X obj 306 126 cnv 1 128 2 empty empty ADAT 0 8 0 7 #ceb848 #404040 0;
#X obj 134 107 cnv 5 5 5 empty indicator-3 3 1 12 0 8 #ceb848 #404040 0;
#X obj 152 107 cnv 5 5 5 empty indicator-4 4 1 12 0 8 #ceb848 #404040 0;
#X obj 169 107 cnv 5 5 5 empty indicator-5 5 1 12 0 8 #ceb848 #404040 0;
#X obj 186 107 cnv 5 5 5 empty indicator-6 6 1 12 0 8 #ceb848 #404040 0;
#X obj 203 107 cnv 5 5 5 empty indicator-7 7 1 12 0 8 #ceb848 #404040 0;
#X obj 220 107 cnv 5 5 5 empty indicator-8 8 1 12 0 8 #ceb848 #404040 0;
#X obj 238 107 cnv 5 5 5 empty indicator-9 9 0 12 0 8 #ceb848 #404040 0;
#X obj 255 107 cnv 5 5 5 empty indicator-10 10 -2 12 0 8 #ceb848 #404040 0;
#X obj 273 107 cnv 5 5 5 empty indicator-11 11 -2 12 0 8 #ceb848 #404040 0;
#X obj 290 107 cnv 5 5 5 empty indicator-12 12 -2 12 0 8 #ceb848 #404040 0;
#X obj 307 107 cnv 5 5 5 empty indicator-13 13 -2 12 0 8 #ceb848 #404040 0;
#X obj 324 107 cnv 5 5 5 empty indicator-14 14 -2 12 0 8 #ceb848 #404040 0;
#X obj 341 107 cnv 5 5 5 empty indicator-15 15 -2 12 0 8 #ceb848 #404040 0;
#X obj 359 107 cnv 5 5 5 empty indicator-16 16 -2 12 0 8 #ceb848 #404040 0;
#X obj 376 107 cnv 5 5 5 empty indicator-17 17 -2 12 0 8 #ceb848 #404040 0;
#X obj 393 107 cnv 5 5 5 empty indicator-18 18 -2 12 0 8 #ceb848 #404040 0;
#X obj 101 153 cnv 5 5 5 empty empty UMC-1820\ IN 1 -5 0 12 #ffe45e #404040 0;
#X obj 16 1159 dac~ 1 2 3 4 5 6 7 8 9 10 11 12 13 14 15 16 17 18 19 20;
#X obj 101 127 cnv 1 24 2 empty empty MAIN 0 8 0 7 #ceb848 #404040 0;
#X obj 410 107 cnv 5 5 5 empty indicator-19 19 -2 12 0 8 #ceb848 #404040 0;
#X obj 426 107 cnv 5 5 5 empty indicator-20 20 -2 12 0 8 #ceb848 #404040 0;
#X obj 16 626 inlet~;
#X obj 36 652 inlet~;
#X obj 56 679 inlet~;
#X obj 76 705 inlet~;
#X obj 96 731 inlet~;
#X obj 116 758 inlet~;
#X obj 137 784 inlet~;
#X obj 157 810 inlet~;
#X obj 177 834 inlet~;
#X obj 197 861 inlet~;
#X obj 218 887 inlet~;
#X obj 237 914 inlet~;
#X obj 257 940 inlet~;
#X obj 277 968 inlet~;
#X obj 297 996 inlet~;
#X obj 318 1023 inlet~;
#X obj 337 1050 inlet~;
#X obj 357 1078 inlet~;
#X obj 378 1105 inlet~;
#X obj 398 1131 inlet~;
#X obj 118 107 cnv 5 5 5 empty indicator-3 2 1 12 0 8 #ceb848 #404040 0;
#X obj 102 107 cnv 5 5 5 empty indicator-3 1 1 12 0 8 #ceb848 #404040 0;
#X connect 24 0 20 0;
#X connect 25 0 20 1;
#X connect 26 0 20 2;
#X connect 27 0 20 3;
#X connect 28 0 20 4;
#X connect 29 0 20 5;
#X connect 30 0 20 6;
#X connect 31 0 20 7;
#X connect 32 0 20 8;
#X connect 33 0 20 9;
#X connect 34 0 20 10;
#X connect 35 0 20 11;
#X connect 36 0 20 12;
#X connect 37 0 20 13;
#X connect 38 0 20 14;
#X connect 39 0 20 15;
#X connect 40 0 20 16;
#X connect 41 0 20 17;
#X connect 42 0 20 18;
#X connect 43 0 20 19;
#X coords 0 -1 1 1 335 60 2 100 100;
