#N canvas 964 66 945 969 12;
#X obj 15 626 adc~ 1 2 3 4 5 6 7 8 9 10 11 12 13 14 15 16 17 18;
#X obj 101 136 cnv 1 128 2 empty empty LINE 0 -5 0 7 #ceb848 #404040 0;
#X obj 236 136 cnv 1 28 2 empty empty SPDIF 0 -5 0 7 #ceb848 #404040 0;
#X obj 270 136 cnv 1 128 2 empty empty ADAT 0 -5 0 7 #ceb848 #404040 0;
#X obj 101 150 cnv 5 5 5 empty o-indicator-1 1 1 -5 0 8 #ceb848 #404040 0;
#X obj 117 150 cnv 5 5 5 empty o-indicator-2 2 1 -5 0 8 #ceb848 #404040 0;
#X obj 134 150 cnv 5 5 5 empty o-indicator-3 3 1 -5 0 8 #ceb848 #404040 0;
#X obj 152 150 cnv 5 5 5 empty o-indicator-4 4 1 -5 0 8 #ceb848 #404040 0;
#X obj 169 150 cnv 5 5 5 empty o-indicator-5 5 1 -5 0 8 #ceb848 #404040 0;
#X obj 186 150 cnv 5 5 5 empty o-indicator-6 6 1 -5 0 8 #ceb848 #404040 0;
#X obj 203 150 cnv 5 5 5 empty o-indicator-7 7 1 -5 0 8 #ceb848 #404040 0;
#X obj 220 150 cnv 5 5 5 empty o-indicator-8 8 1 -5 0 8 #ceb848 #404040 0;
#X obj 238 150 cnv 5 5 5 empty o-indicator-9 9 0 -5 0 8 #ceb848 #404040 0;
#X obj 255 150 cnv 5 5 5 empty o-indicator-10 10 -2 -5 0 8 #ceb848 #404040 0;
#X obj 273 150 cnv 5 5 5 empty o-indicator-11 11 -2 -5 0 8 #ceb848 #404040 0;
#X obj 290 150 cnv 5 5 5 empty o-indicator-12 12 -2 -5 0 8 #ceb848 #404040 0;
#X obj 307 150 cnv 5 5 5 empty o-indicator-13 13 -2 -5 0 8 #ceb848 #404040 0;
#X obj 324 150 cnv 5 5 5 empty o-indicator-14 14 -2 -5 0 8 #ceb848 #404040 0;
#X obj 341 150 cnv 5 5 5 empty o-indicator-15 15 -2 -5 0 8 #ceb848 #404040 0;
#X obj 359 150 cnv 5 5 5 empty o-indicator-16 16 -2 -5 0 8 #ceb848 #404040 0;
#X obj 376 150 cnv 5 5 5 empty o-indicator-17 17 -2 -5 0 8 #ceb848 #404040 0;
#X obj 393 150 cnv 5 5 5 empty o-indicator-18 18 -4 -5 0 8 #ceb848 #404040 0;
#X obj 102 118 cnv 5 5 5 empty empty UMC-1820\ OUT 1 -5 0 12 #ffe45e #404040 0;
#X obj 15 1172 outlet~;
#X obj 35 1142 outlet~;
#X obj 55 1111 outlet~;
#X obj 75 1081 outlet~;
#X obj 95 1051 outlet~;
#X obj 115 1021 outlet~;
#X obj 135 992 outlet~;
#X obj 155 965 outlet~;
#X obj 175 937 outlet~;
#X obj 195 909 outlet~;
#X obj 215 882 outlet~;
#X obj 235 854 outlet~;
#X obj 255 824 outlet~;
#X obj 275 795 outlet~;
#X obj 295 766 outlet~;
#X obj 315 735 outlet~;
#X obj 335 705 outlet~;
#X obj 355 675 outlet~;
#X connect 0 0 23 0;
#X connect 0 1 24 0;
#X connect 0 2 25 0;
#X connect 0 3 26 0;
#X connect 0 4 27 0;
#X connect 0 5 28 0;
#X connect 0 6 29 0;
#X connect 0 7 30 0;
#X connect 0 8 31 0;
#X connect 0 9 32 0;
#X connect 0 10 33 0;
#X connect 0 11 34 0;
#X connect 0 12 35 0;
#X connect 0 13 36 0;
#X connect 0 14 37 0;
#X connect 0 15 38 0;
#X connect 0 16 39 0;
#X connect 0 17 40 0;
#X coords 0 -1 1 1 300 60 2 100 100;
