#N canvas 964 41 945 994 12;
#X obj 133 126 cnv 1 130 2 empty empty LINE 0 8 0 7 #ceb848 #404040 0;
#X obj 271 126 cnv 1 28 2 empty empty SPDIF 0 8 0 7 #ceb848 #404040 0;
#X obj 306 126 cnv 1 128 2 empty empty ADAT 0 8 0 7 #ceb848 #404040 0;
#X obj 101 107 cnv 5 5 5 empty indicator-1 1 1 12 0 8 #ceb848 #404040 0;
#X obj 117 107 cnv 5 5 5 empty indicator-2 2 1 12 0 8 #ceb848 #404040 0;
#X obj 134 107 cnv 5 5 5 empty indicator-3 3 1 12 0 8 #ceb848 #404040 0;
#X obj 152 107 cnv 5 5 5 empty indicator-4 4 1 12 0 8 #ceb848 #404040 0;
#X obj 169 107 cnv 5 5 5 empty indicator-5 5 1 12 0 8 #ceb848 #404040 0;
#X obj 186 107 cnv 5 5 5 empty indicator-6 6 1 12 0 8 #ceb848 #404040 0;
#X obj 203 107 cnv 5 5 5 empty indicator-7 7 1 12 0 8 #ceb848 #404040 0;
#X obj 220 107 cnv 5 5 5 empty indicator-8 8 1 12 0 8 #ceb848 #404040 0;
#X obj 238 107 cnv 5 5 5 empty indicator-9 9 0 12 0 8 #ceb848 #404040 0;
#X obj 255 107 cnv 5 5 5 empty indicator-10 10 -2 12 0 8 #ceb848 #404040 0;
#X obj 273 107 cnv 5 5 5 empty indicator-11 11 -2 12 0 8 #ceb848 #404040 0;
#X obj 290 107 cnv 5 5 5 empty indicator-12 12 -2 12 0 8 #ceb848 #404040 0;
#X obj 307 107 cnv 5 5 5 empty indicator-13 13 -2 12 0 8 #ceb848 #404040 0;
#X obj 324 107 cnv 5 5 5 empty indicator-14 14 -2 12 0 8 #ceb848 #404040 0;
#X obj 341 107 cnv 5 5 5 empty indicator-15 15 -2 12 0 8 #ceb848 #404040 0;
#X obj 359 107 cnv 5 5 5 empty indicator-16 16 -2 12 0 8 #ceb848 #404040 0;
#X obj 376 107 cnv 5 5 5 empty indicator-17 17 -2 12 0 8 #ceb848 #404040 0;
#X obj 393 107 cnv 5 5 5 empty indicator-18 18 -2 12 0 8 #ceb848 #404040 0;
#X obj 101 153 cnv 5 5 5 empty empty UMC-1820\ IN 1 -5 0 12 #ffe45e #404040 0;
#X obj 14 462 sel 1;
#X obj 14 408 env~;
#X obj 264 457 sel 1;
#X obj 264 433 > 0;
#X obj 264 406 env~;
#X obj 474 457 sel 1;
#X obj 474 433 > 0;
#X obj 474 406 env~;
#X obj 685 456 sel 1;
#X obj 685 432 > 0;
#X obj 685 405 env~;
#X obj 904 456 sel 1;
#X obj 904 432 > 0;
#X obj 904 405 env~;
#X obj 1154 455 sel 1;
#X obj 1154 431 > 0;
#X obj 1154 404 env~;
#X obj 1374 455 sel 1;
#X obj 1374 431 > 0;
#X obj 1374 404 env~;
#X obj 1594 454 sel 1;
#X obj 1594 430 > 0;
#X obj 1594 403 env~;
#X obj 1814 454 sel 1;
#X obj 1814 430 > 0;
#X obj 1814 403 env~;
#X obj 2044 454 sel 1;
#X obj 2044 430 > 0;
#X obj 2044 403 env~;
#X obj 2284 454 sel 1;
#X obj 2284 430 > 0;
#X obj 2284 403 env~;
#X obj 2534 453 sel 1;
#X obj 2534 429 > 0;
#X obj 2534 402 env~;
#X obj 2754 453 sel 1;
#X obj 2754 429 > 0;
#X obj 2754 402 env~;
#X obj 2974 452 sel 1;
#X obj 2974 428 > 0;
#X obj 2974 401 env~;
#X obj 3174 452 sel 1;
#X obj 3174 428 > 0;
#X obj 3174 401 env~;
#X obj 3424 451 sel 1;
#X obj 3424 427 > 0;
#X obj 3424 400 env~;
#X obj 3654 451 sel 1;
#X obj 3654 427 > 0;
#X obj 3654 400 env~;
#X obj 3904 450 sel 1;
#X obj 3904 426 > 0;
#X obj 3904 399 env~;
#X obj 404 146 cnv 5 5 5 empty dsp DSP 10 3 0 8 #16db65 #404040 0;
#X obj 14 235 r pd-dsp-started;
#X msg 166 271 \; dsp color #ceb848;
#X obj 166 235 r pd-dsp-stopped;
#X msg 14 271 \; dsp color #16DB65;
#X obj 14 435 > 0;
#X obj 16 1159 dac~ 1 2 3 4 5 6 7 8 9 10 11 12 13 14 15 16 17 18 19 20;
#X obj 357 1078 r~ \$0-o-18;
#X obj 378 1105 r~ \$0-o-19;
#X obj 398 1131 r~ \$0-o-20;
#X obj 337 1050 r~ \$0-o-17;
#X obj 318 1023 r~ \$0-o-16;
#X obj 297 996 r~ \$0-o-15;
#X obj 277 968 r~ \$0-o-14;
#X obj 257 940 r~ \$0-o-13;
#X obj 237 914 r~ \$0-o-12;
#X obj 218 887 r~ \$0-o-11;
#X obj 197 861 r~ \$0-o-10;
#X obj 177 834 r~ \$0-o-9;
#X obj 157 810 r~ \$0-o-8;
#X obj 137 784 r~ \$0-o-7;
#X obj 116 758 r~ \$0-o-6;
#X obj 96 731 r~ \$0-o-5;
#X obj 76 705 r~ \$0-o-4;
#X obj 56 679 r~ \$0-o-3;
#X obj 36 652 r~ \$0-o-2;
#X obj 16 626 r~ \$0-o-1;
#X obj 101 127 cnv 1 24 2 empty empty MAIN 0 8 0 7 #ceb848 #404040 0;
#X obj 410 107 cnv 5 5 5 empty indicator-19 19 -2 12 0 8 #ceb848 #404040 0;
#X obj 426 107 cnv 5 5 5 empty indicator-20 20 -2 12 0 8 #ceb848 #404040 0;
#X obj 4144 450 sel 1;
#X obj 4144 426 > 0;
#X obj 4144 399 env~;
#X obj 4394 449 sel 1;
#X obj 4394 425 > 0;
#X obj 4394 398 env~;
#X obj 14 369 inlet~;
#X obj 264 370 inlet~;
#X obj 474 371 inlet~;
#X obj 685 368 inlet~;
#X obj 905 369 inlet~;
#X obj 1152 366 inlet~;
#X obj 1375 366 inlet~;
#X obj 1595 366 inlet~;
#X obj 1814 363 inlet~;
#X obj 2044 367 inlet~;
#X obj 2284 368 inlet~;
#X obj 2534 365 inlet~;
#X obj 2754 366 inlet~;
#X obj 2974 364 inlet~;
#X obj 3176 364 inlet~;
#X obj 3426 362 inlet~;
#X obj 3656 363 inlet~;
#X obj 3906 361 inlet~;
#X obj 4144 365 inlet~;
#X obj 4393 360 inlet~;
#X obj 54 408 s~ \$0-o-1;
#X msg 14 490 \; indicator-1 color #16DB65;
#X msg 46 533 \; indicator-1 color #ceb848;
#X obj 305 406 s~ \$0-o-2;
#X msg 264 489 \; indicator-2 color #16DB65;
#X msg 296 532 \; indicator-2 color #ceb848;
#X obj 518 406 s~ \$0-o-3;
#X msg 474 489 \; indicator-3 color #16DB65;
#X msg 506 532 \; indicator-3 color #ceb848;
#X obj 727 405 s~ \$0-o-4;
#X msg 685 488 \; indicator-4 color #16DB65;
#X msg 717 531 \; indicator-4 color #ceb848;
#X obj 947 405 s~ \$0-o-5;
#X msg 904 488 \; indicator-5 color #16DB65;
#X msg 936 531 \; indicator-5 color #ceb848;
#X obj 1195 404 s~ \$0-o-6;
#X msg 1154 487 \; indicator-6 color #16DB65;
#X msg 1186 530 \; indicator-6 color #ceb848;
#X obj 1416 404 s~ \$0-o-7;
#X msg 1374 487 \; indicator-7 color #16DB65;
#X msg 1406 530 \; indicator-7 color #ceb848;
#X obj 1635 403 s~ \$0-o-8;
#X msg 1594 486 \; indicator-8 color #16DB65;
#X msg 1626 529 \; indicator-8 color #ceb848;
#X obj 1855 403 s~ \$0-o-9;
#X msg 1814 486 \; indicator-9 color #16DB65;
#X msg 1846 529 \; indicator-9 color #ceb848;
#X obj 2089 403 s~ \$0-o-10;
#X msg 2044 486 \; indicator-10 color #16DB65;
#X msg 2076 529 \; indicator-10 color #ceb848;
#X obj 2324 403 s~ \$0-o-11;
#X msg 2284 486 \; indicator-11 color #16DB65;
#X msg 2316 529 \; indicator-11 color #ceb848;
#X obj 2574 402 s~ \$0-o-12;
#X msg 2534 485 \; indicator-12 color #16DB65;
#X msg 2566 528 \; indicator-12 color #ceb848;
#X obj 2794 402 s~ \$0-o-13;
#X msg 2754 485 \; indicator-13 color #16DB65;
#X msg 2786 528 \; indicator-13 color #ceb848;
#X obj 3014 401 s~ \$0-o-14;
#X msg 2974 484 \; indicator-14 color #16DB65;
#X msg 3006 527 \; indicator-14 color #ceb848;
#X obj 3213 401 s~ \$0-o-15;
#X msg 3174 484 \; indicator-15 color #16DB65;
#X msg 3206 527 \; indicator-15 color #ceb848;
#X obj 3468 400 s~ \$0-o-16;
#X msg 3424 483 \; indicator-16 color #16DB65;
#X msg 3456 526 \; indicator-16 color #ceb848;
#X obj 3694 400 s~ \$0-o-17;
#X msg 3654 483 \; indicator-17 color #16DB65;
#X msg 3686 526 \; indicator-17 color #ceb848;
#X obj 3946 399 s~ \$0-o-18;
#X msg 3904 482 \; indicator-18 color #16DB65;
#X msg 3936 525 \; indicator-18 color #ceb848;
#X obj 4184 399 s~ \$0-o-19;
#X msg 4144 482 \; indicator-19 color #16DB65;
#X msg 4176 525 \; indicator-19 color #ceb848;
#X obj 4436 398 s~ \$0-o-20;
#X msg 4394 481 \; indicator-20 color #16DB65;
#X msg 4426 524 \; indicator-20 color #ceb848;
#X connect 22 0 132 0;
#X connect 22 1 133 0;
#X connect 23 0 80 0;
#X connect 24 0 135 0;
#X connect 24 1 136 0;
#X connect 25 0 24 0;
#X connect 26 0 25 0;
#X connect 27 0 138 0;
#X connect 27 1 139 0;
#X connect 28 0 27 0;
#X connect 29 0 28 0;
#X connect 30 0 141 0;
#X connect 30 1 142 0;
#X connect 31 0 30 0;
#X connect 32 0 31 0;
#X connect 33 0 144 0;
#X connect 33 1 145 0;
#X connect 34 0 33 0;
#X connect 35 0 34 0;
#X connect 36 0 147 0;
#X connect 36 1 148 0;
#X connect 37 0 36 0;
#X connect 38 0 37 0;
#X connect 39 0 150 0;
#X connect 39 1 151 0;
#X connect 40 0 39 0;
#X connect 41 0 40 0;
#X connect 42 0 153 0;
#X connect 42 1 154 0;
#X connect 43 0 42 0;
#X connect 44 0 43 0;
#X connect 45 0 156 0;
#X connect 45 1 157 0;
#X connect 46 0 45 0;
#X connect 47 0 46 0;
#X connect 48 0 159 0;
#X connect 48 1 160 0;
#X connect 49 0 48 0;
#X connect 50 0 49 0;
#X connect 51 0 162 0;
#X connect 51 1 163 0;
#X connect 52 0 51 0;
#X connect 53 0 52 0;
#X connect 54 0 165 0;
#X connect 54 1 166 0;
#X connect 55 0 54 0;
#X connect 56 0 55 0;
#X connect 57 0 168 0;
#X connect 57 1 169 0;
#X connect 58 0 57 0;
#X connect 59 0 58 0;
#X connect 60 0 171 0;
#X connect 60 1 172 0;
#X connect 61 0 60 0;
#X connect 62 0 61 0;
#X connect 63 0 174 0;
#X connect 63 1 175 0;
#X connect 64 0 63 0;
#X connect 65 0 64 0;
#X connect 66 0 177 0;
#X connect 66 1 178 0;
#X connect 67 0 66 0;
#X connect 68 0 67 0;
#X connect 69 0 180 0;
#X connect 69 1 181 0;
#X connect 70 0 69 0;
#X connect 71 0 70 0;
#X connect 72 0 183 0;
#X connect 72 1 184 0;
#X connect 73 0 72 0;
#X connect 74 0 73 0;
#X connect 76 0 79 0;
#X connect 78 0 77 0;
#X connect 80 0 22 0;
#X connect 82 0 81 17;
#X connect 83 0 81 18;
#X connect 84 0 81 19;
#X connect 85 0 81 16;
#X connect 86 0 81 15;
#X connect 87 0 81 14;
#X connect 88 0 81 13;
#X connect 89 0 81 12;
#X connect 90 0 81 11;
#X connect 91 0 81 10;
#X connect 92 0 81 9;
#X connect 93 0 81 8;
#X connect 94 0 81 7;
#X connect 95 0 81 6;
#X connect 96 0 81 5;
#X connect 97 0 81 4;
#X connect 98 0 81 3;
#X connect 99 0 81 2;
#X connect 100 0 81 1;
#X connect 101 0 81 0;
#X connect 105 0 186 0;
#X connect 105 1 187 0;
#X connect 106 0 105 0;
#X connect 107 0 106 0;
#X connect 108 0 189 0;
#X connect 108 1 190 0;
#X connect 109 0 108 0;
#X connect 110 0 109 0;
#X connect 111 0 23 0;
#X connect 111 0 131 0;
#X connect 112 0 26 0;
#X connect 112 0 134 0;
#X connect 113 0 29 0;
#X connect 113 0 137 0;
#X connect 114 0 32 0;
#X connect 114 0 140 0;
#X connect 115 0 35 0;
#X connect 115 0 143 0;
#X connect 116 0 38 0;
#X connect 116 0 146 0;
#X connect 117 0 41 0;
#X connect 117 0 149 0;
#X connect 118 0 44 0;
#X connect 118 0 152 0;
#X connect 119 0 47 0;
#X connect 119 0 155 0;
#X connect 120 0 50 0;
#X connect 120 0 158 0;
#X connect 121 0 53 0;
#X connect 121 0 161 0;
#X connect 122 0 56 0;
#X connect 122 0 164 0;
#X connect 123 0 59 0;
#X connect 123 0 167 0;
#X connect 124 0 62 0;
#X connect 124 0 170 0;
#X connect 125 0 65 0;
#X connect 125 0 173 0;
#X connect 126 0 68 0;
#X connect 126 0 176 0;
#X connect 127 0 71 0;
#X connect 127 0 179 0;
#X connect 128 0 74 0;
#X connect 128 0 182 0;
#X connect 129 0 107 0;
#X connect 129 0 185 0;
#X connect 130 0 110 0;
#X connect 130 0 188 0;
#X coords 0 -1 1 1 335 60 2 100 100;
